<?xml version="1.0" encoding="utf-8"?>
<!-- Generator: Adobe Illustrator 16.0.0, SVG Export Plug-In . SVG Version: 6.00 Build 0)  -->
<!DOCTYPE svg PUBLIC "-//W3C//DTD SVG 1.1//EN" "http://www.w3.org/Graphics/SVG/1.1/DTD/svg11.dtd">
<svg version="1.1" xmlns="http://www.w3.org/2000/svg" xmlns:xlink="http://www.w3.org/1999/xlink" x="0px" y="0px" width="296px"
	 height="157.333px" viewBox="0 0 296 157.333" enable-background="new 0 0 296 157.333" xml:space="preserve">
<g id="Layer_1">
	<g>
		<path d="M17.389,78.443c0,0,119.331-166.953,252.625-3.765C270.014,74.678,163.878,252.606,17.389,78.443z"/>
		<path fill="#FFFFFF" d="M48.104,77.983c0,0,90.067-126.013,190.674-2.843C238.778,75.14,158.671,209.434,48.104,77.983z"/>
		<circle fill="#0075B5" cx="143.738" cy="79.042" r="53.456"/>
		<circle cx="143.737" cy="79.042" r="28.324"/>
		<circle fill="#FFFFFF" cx="157.229" cy="55.325" r="5.703"/>
	</g>
</g>
<g id="Layer_2" display="none">
	<g display="inline">
		<path d="M11.827,45.386c-1.934,0.249-3.607-0.396-5.02-1.933c-1.413-1.536-2.363-3.47-2.851-5.802
			c-0.487-2.331-0.361-4.728,0.378-7.191c0.74-2.463,2.159-4.659,4.258-6.59c0.837-0.77,1.632-1.255,2.387-1.458
			c0.754-0.201,1.539-0.256,2.355-0.164c0.247,0.025,0.417-0.004,0.508-0.088c0.304-0.28,0.196-1.023-0.323-2.229l0.502-0.462
			c0.788,1.803,1.902,4.008,3.343,6.612l-0.502,0.461c-0.622-0.859-1.114-1.486-1.478-1.883c-0.308-0.334-0.6-0.599-0.877-0.793
			s-0.603-0.357-0.978-0.491c-0.805-0.326-1.625-0.386-2.46-0.18c-0.835,0.206-1.603,0.631-2.302,1.274
			c-1.004,0.924-1.486,2.293-1.444,4.108c0.041,1.816,0.501,3.729,1.383,5.739c0.88,2.013,1.986,3.74,3.315,5.186
			c1.161,1.264,2.235,2.065,3.223,2.406c0.988,0.342,1.809,0.211,2.462-0.39c0.7-0.644,1.279-1.464,1.738-2.463
			c0.458-0.996,0.704-2.028,0.733-3.094c0.018-0.774-0.07-1.558-0.264-2.349c-0.194-0.79-0.526-1.839-0.998-3.146l0.502-0.461
			c1.705,3.29,2.935,5.527,3.689,6.715l-0.502,0.461c-0.248-0.361-0.462-0.641-0.645-0.839c-0.364-0.396-0.645-0.502-0.842-0.32
			c-0.122,0.112-0.211,0.32-0.268,0.625c-0.252,1.13-0.594,2.126-1.025,2.984c-0.431,0.86-1.08,1.688-1.947,2.485
			C15.777,44.049,13.76,45.138,11.827,45.386z"/>
		<path d="M36.571,2.381L36.82,2.97c-0.586,0.493-0.987,0.897-1.202,1.213c-0.215,0.316-0.303,0.68-0.265,1.091
			s0.209,0.993,0.516,1.744l4.775,11.77c0.323,0.739,0.553,1.199,0.69,1.382c0.261,0.347,0.554,0.488,0.881,0.423
			c0.326-0.064,0.824-0.321,1.493-0.773l0.273,0.57c-1.028,0.695-2.6,1.839-4.714,3.427c-1.9,1.429-3.343,2.554-4.33,3.372
			l-0.273-0.569c0.57-0.48,0.966-0.882,1.189-1.205c0.223-0.322,0.316-0.689,0.278-1.1c-0.038-0.412-0.21-0.993-0.517-1.745
			l-2.3-5.64l-5.476,4.116l2.3,5.64c0.324,0.739,0.554,1.2,0.69,1.383c0.261,0.347,0.555,0.487,0.881,0.423
			c0.327-0.064,0.824-0.322,1.494-0.773l0.273,0.57c-1.045,0.707-2.526,1.782-4.442,3.223c-2.082,1.565-3.607,2.751-4.578,3.558
			l-0.249-0.589c0.554-0.468,0.938-0.859,1.152-1.177c0.214-0.315,0.3-0.684,0.256-1.103c-0.044-0.42-0.213-0.997-0.507-1.732
			L20.333,18.7c-0.29-0.662-0.522-1.107-0.696-1.34c-0.273-0.362-0.573-0.512-0.899-0.447c-0.326,0.065-0.816,0.316-1.469,0.755
			l-0.249-0.589c0.995-0.671,2.559-1.807,4.689-3.408c1.768-1.329,3.219-2.459,4.355-3.391l0.249,0.588
			c-0.586,0.493-0.987,0.897-1.201,1.214c-0.215,0.316-0.303,0.681-0.266,1.092c0.038,0.411,0.21,0.993,0.517,1.744l2.25,5.522
			l5.477-4.117l-2.251-5.521c-0.249-0.641-0.472-1.093-0.671-1.356c-0.273-0.364-0.577-0.51-0.912-0.44
			c-0.335,0.07-0.829,0.326-1.481,0.765L27.526,9.18c1.028-0.695,2.5-1.764,4.417-3.205C34.041,4.4,35.584,3.201,36.571,2.381z"/>
		<path d="M62.604,7.755c0.408,0.118,0.768,0.096,1.08-0.067l0.186,0.612c-1.061,0.563-2.575,1.433-4.543,2.61
			c-2.058,1.231-3.549,2.159-4.475,2.785l-0.186-0.611c0.812-0.534,1.327-1.022,1.543-1.465c0.217-0.443,0.134-0.984-0.248-1.622
			c-0.138-0.23-0.253-0.402-0.345-0.516L53.244,6.42l-5.4,3.232l-0.531,3.821c-0.122,0.844-0.055,1.479,0.2,1.904
			c0.445,0.744,1.562,0.738,3.349-0.018l0.212,0.597c-1.61,0.891-2.886,1.617-3.826,2.18c-0.602,0.36-1.163,0.731-1.681,1.113
			l-0.212-0.595c0.37-0.51,0.632-1.088,0.786-1.735c0.155-0.646,0.344-1.771,0.565-3.373L49.266-5.18
			c0.241-0.12,0.583-0.312,1.027-0.579c0.443-0.265,0.766-0.47,0.968-0.615L61.362,6.765C61.783,7.309,62.197,7.639,62.604,7.755z
			 M52.873,5.92l-3.822-4.938l-1.1,7.883L52.873,5.92z"/>
		<path d="M86.228-23.594c0.87,0.303,1.498,0.888,1.885,1.757c0.395,0.887,0.413,1.739,0.052,2.556
			c-0.361,0.817-0.994,1.426-1.9,1.83c-0.774,0.344-1.47,0.434-2.087,0.267c-0.617-0.166-1.072-0.58-1.367-1.24
			c-0.37-0.831-0.404-1.658-0.104-2.482c0.3-0.824,0.842-1.5,1.624-2.03c-0.218-0.083-0.488-0.054-0.809,0.089
			c-0.51,0.227-0.888,0.56-1.134,0.998c-0.247,0.438-0.44,0.982-0.58,1.632c-0.301,1.56-0.318,3.897-0.05,7.013
			c0.268,3.116,0.854,7.165,1.76,12.145l-0.623,0.277l-13.664-9.424c0.666,3.731,1.146,6.905,1.44,9.522
			c0.294,2.618,0.297,4.465,0.009,5.544c-0.201,0.768-0.464,1.412-0.787,1.929c-0.324,0.518-0.807,0.918-1.449,1.205
			c-0.982,0.438-1.908,0.504-2.777,0.202c-0.871-0.303-1.499-0.888-1.885-1.757C63.388,5.552,63.37,4.7,63.73,3.883
			c0.36-0.816,0.993-1.426,1.9-1.831c0.774-0.344,1.47-0.434,2.086-0.268c0.617,0.167,1.073,0.581,1.367,1.242
			c0.37,0.831,0.405,1.658,0.104,2.482c-0.301,0.823-0.842,1.5-1.625,2.03c0.191,0.074,0.457,0.034,0.796-0.117
			c0.453-0.203,0.829-0.539,1.128-1.011c0.298-0.473,0.502-1.017,0.614-1.632c0.247-1.376,0.188-3.539-0.174-6.488
			c-0.363-2.949-0.978-6.617-1.846-11.004c-0.149-0.386-0.325-0.641-0.527-0.766c-0.203-0.125-0.47-0.152-0.801-0.084
			c-0.332,0.069-0.813,0.232-1.444,0.49l-0.111-0.629c0.629-0.212,1.482-0.558,2.559-1.037c1.397-0.622,2.621-1.201,3.672-1.737
			l10.156,7.186c-0.722-5.38-0.851-9.021-0.386-10.925c0.368-1.611,1.119-2.669,2.251-3.174
			C84.431-23.83,85.357-23.896,86.228-23.594z"/>
		<path d="M105.716-7.598c-0.009-0.105-0.041-0.257-0.097-0.456c-0.18-0.637-0.528-0.882-1.045-0.736
			c-0.338,0.095-0.681,0.251-1.027,0.467c-0.348,0.216-0.783,0.539-1.306,0.965c-0.891,0.724-1.644,1.253-2.257,1.587
			c-0.615,0.334-1.3,0.608-2.055,0.821c-2.845,0.803-5.184,0.884-7.019,0.242c-1.835-0.642-3.035-1.967-3.603-3.976
			c-0.55-1.949-0.533-4.074,0.052-6.376c0.584-2.301,1.758-4.399,3.522-6.293c1.763-1.894,4.046-3.236,6.851-4.028
			c2.069-0.584,3.982-0.426,5.739,0.474c0.23,0.129,0.423,0.171,0.583,0.125c0.199-0.056,0.354-0.25,0.464-0.582
			c0.11-0.332,0.185-0.847,0.225-1.545l0.656-0.186c-0.12,2.01-0.111,4.477,0.027,7.401l-0.656,0.185
			c-0.142-0.883-0.303-1.643-0.482-2.28c-0.135-0.477-0.279-0.876-0.435-1.198s-0.354-0.609-0.598-0.862
			c-1.333-1.299-3.183-1.614-5.549-0.946c-1.711,0.483-2.941,1.641-3.69,3.474c-0.75,1.833-1.116,3.864-1.099,6.092
			c0.017,2.229,0.259,4.168,0.725,5.819c0.438,1.552,1.055,2.634,1.851,3.247s1.75,0.762,2.865,0.448
			c0.795-0.225,1.332-0.569,1.608-1.034c0.276-0.465,0.381-1.16,0.313-2.085l-0.028-2.15c-0.009-0.491-0.062-0.905-0.158-1.244
			c-0.157-0.556-0.466-0.91-0.927-1.059c-0.46-0.149-1.114-0.125-1.961,0.07l-0.049-0.63c1.37-0.322,3.278-0.829,5.724-1.52
			c2.188-0.617,3.811-1.107,4.868-1.47l0.049,0.63c-0.486,0.181-0.832,0.363-1.037,0.55c-0.205,0.187-0.346,0.468-0.422,0.844
			c-0.077,0.376-0.105,0.98-0.084,1.812l0.06,5.233L105.716-7.598z"/>
		<path d="M127.493-30.377c-0.312,1.425-0.522,2.688-0.631,3.791c-0.056,0.468-0.096,1.122-0.118,1.96l-0.675,0.1
			c-0.013-0.228-0.048-0.536-0.104-0.924c-0.206-1.391-0.68-2.339-1.423-2.845c-0.744-0.507-1.708-0.673-2.894-0.498l-0.091,0.014
			c-0.716,0.105-1.245,0.241-1.586,0.406c-0.341,0.166-0.588,0.437-0.741,0.814c-0.153,0.378-0.275,0.971-0.364,1.777l-0.691,5.931
			l0.459-0.068c0.961-0.142,1.791-0.608,2.489-1.401c0.697-0.792,1.161-1.686,1.39-2.681l0.675-0.1
			c-0.179,1.05-0.312,2.062-0.398,3.036l-0.092,0.859c-0.062,0.573-0.113,1.145-0.154,1.715c-0.042,0.57-0.072,1.285-0.091,2.145
			l-0.675,0.1c-0.129-0.879-0.482-1.637-1.056-2.272c-0.575-0.636-1.383-0.877-2.426-0.724l-0.184,0.027l-0.704,6.058
			c-0.07,0.804-0.087,1.318-0.055,1.543c0.063,0.43,0.253,0.689,0.569,0.778c0.316,0.089,0.853,0.077,1.609-0.034l0.399-0.059
			c1.512-0.223,2.745-0.828,3.696-1.814c0.951-0.986,1.69-2.521,2.218-4.605l0.675-0.099c-0.097,0.474-0.204,1.242-0.318,2.303
			c-0.17,1.258-0.242,2.605-0.218,4.043c-1.4,0.144-3.714,0.454-6.945,0.931c-4.744,0.7-8.296,1.256-10.659,1.668l0.032-0.632
			c0.73-0.149,1.271-0.313,1.62-0.49c0.35-0.177,0.606-0.455,0.77-0.834c0.164-0.379,0.29-0.972,0.38-1.779l1.458-12.625
			c0.061-0.719,0.071-1.222,0.028-1.508c-0.066-0.449-0.258-0.724-0.576-0.824c-0.318-0.099-0.868-0.111-1.651-0.038l0.062-0.636
			c2.36-0.285,5.912-0.778,10.656-1.479C124.102-29.783,126.213-30.126,127.493-30.377z"/>
		<path d="M166.989-29.729l-0.186,0.611c-0.766,0.004-1.332,0.058-1.7,0.165c-0.366,0.105-0.668,0.329-0.901,0.669
			c-0.234,0.34-0.475,0.897-0.72,1.671l-3.858,12.1c-0.201,0.694-0.308,1.185-0.321,1.474c-0.022,0.455,0.112,0.761,0.404,0.92
			c0.292,0.16,0.829,0.279,1.611,0.359l-0.155,0.613c-1.503-0.137-3.4-0.262-5.691-0.375c-2.539-0.126-4.397-0.188-5.578-0.184
			l0.154-0.613c0.766-0.003,1.333-0.058,1.7-0.164c0.366-0.106,0.668-0.329,0.901-0.669c0.235-0.34,0.475-0.897,0.721-1.671
			l3.225-9.958l-10.207,13.057c-0.494-0.066-0.864-0.104-1.111-0.117c-0.248-0.012-0.621-0.01-1.119,0.007l-1.673-13.802
			l-3.164,9.961c-0.146,0.428-0.227,0.817-0.245,1.168c-0.026,0.537,0.165,0.95,0.574,1.239c0.41,0.29,1.162,0.472,2.255,0.546
			l-0.155,0.613c-0.74-0.099-1.966-0.191-3.68-0.276c-1.28-0.063-2.261-0.082-2.946-0.053l0.155-0.613
			c1.014,0.009,1.753-0.193,2.218-0.604c0.465-0.411,0.847-1.096,1.142-2.054l3.82-11.946c0.2-0.693,0.308-1.185,0.322-1.474
			c0.021-0.454-0.113-0.761-0.404-0.92c-0.293-0.159-0.83-0.278-1.612-0.359l0.186-0.611c0.657,0.095,1.574,0.171,2.752,0.229
			c1.712,0.085,3.2,0.127,4.462,0.128l1.599,13.457l10.008-12.788l1.486,0.074C163.527-29.808,165.438-29.743,166.989-29.729z"/>
		<path d="M187.368-24.176c0.474,0.791,0.608,1.692,0.405,2.706c-0.212,1.054-0.701,1.841-1.47,2.361
			c-0.769,0.521-1.619,0.687-2.551,0.5c-0.771-0.155-1.333-0.504-1.687-1.05s-0.452-1.213-0.293-2.003
			c0.182-0.912,0.637-1.653,1.362-2.225c0.726-0.57,1.575-0.864,2.548-0.879c-0.137-0.154-0.389-0.268-0.754-0.341
			c-0.851-0.17-1.765,0.078-2.741,0.746c-1.687,1.158-3.59,3.442-5.707,6.854l-2.819,5.853c-0.337,0.734-0.527,1.212-0.572,1.435
			c-0.085,0.426,0.004,0.739,0.27,0.939c0.265,0.201,0.789,0.401,1.571,0.6l-0.273,0.577c-1.265-0.317-3.133-0.724-5.604-1.22
			c-2.452-0.492-4.282-0.828-5.49-1.007l0.273-0.578c0.759,0.11,1.334,0.136,1.725,0.077c0.391-0.058,0.728-0.238,1.009-0.54
			c0.282-0.302,0.59-0.809,0.923-1.522l2.148-4.406c0.177-2.768,0.199-4.824,0.068-6.167s-0.489-2.075-1.078-2.193
			c-0.405-0.081-0.785,0.19-1.143,0.814l-0.768,1.3l-0.668-0.134l1.205-2.066c0.58-1,1.313-1.717,2.202-2.15
			c0.888-0.433,1.919-0.532,3.095-0.296c1.175,0.236,2.074,0.638,2.698,1.206s1.042,1.374,1.254,2.417
			c0.212,1.044,0.297,2.458,0.256,4.241l-0.032,1.258c0.738-1.158,1.513-2.205,2.322-3.139c0.809-0.933,1.518-1.655,2.127-2.166
			c0.631-0.526,1.297-0.904,1.997-1.133c0.699-0.228,1.384-0.275,2.052-0.142C186.182-25.458,186.894-24.966,187.368-24.176z"/>
		<path d="M220.072-14.235l-0.329,0.54c-0.629,0.033-1.243,0.193-1.843,0.48c-0.601,0.286-1.594,0.847-2.978,1.682l-16.001,9.785
			c-0.226-0.105-0.581-0.247-1.066-0.424c-0.484-0.177-0.857-0.303-1.116-0.376l3.722-16.102c0.157-0.669,0.139-1.204-0.056-1.605
			c-0.194-0.402-0.452-0.672-0.775-0.812l0.359-0.529c1.085,0.463,2.704,1.09,4.858,1.879c2.153,0.789,3.813,1.365,4.98,1.727
			l-0.359,0.529c-0.888-0.281-1.549-0.37-1.983-0.265c-0.435,0.105-0.776,0.497-1.025,1.176c-0.106,0.291-0.179,0.518-0.217,0.68
			l-2.415,10.374l10.656-6.462c0.731-0.436,1.184-0.887,1.354-1.352c0.299-0.815-0.407-1.679-2.12-2.593l0.33-0.54
			c1.706,0.691,3.072,1.225,4.102,1.603C218.809-14.6,219.45-14.397,220.072-14.235z"/>
		<path d="M217.692,3.879c-0.182,0.395-0.166,0.72,0.046,0.977c0.212,0.256,0.676,0.572,1.392,0.945l-0.371,0.512
			c-1.177-0.608-2.92-1.443-5.23-2.502c-2.236-1.025-3.91-1.76-5.026-2.203l0.399-0.5c0.675,0.264,1.203,0.416,1.582,0.454
			c0.381,0.039,0.745-0.062,1.093-0.3c0.349-0.238,0.775-0.662,1.282-1.271l8.077-9.801c0.443-0.57,0.726-0.986,0.846-1.25
			c0.19-0.413,0.179-0.748-0.033-1.004c-0.213-0.256-0.667-0.567-1.363-0.932l0.399-0.499c1.007,0.53,2.657,1.32,4.949,2.372
			c2.122,0.974,3.901,1.755,5.336,2.345l-0.399,0.499c-0.713-0.281-1.26-0.441-1.639-0.479c-0.382-0.037-0.743,0.058-1.087,0.288
			c-0.345,0.228-0.774,0.656-1.288,1.283l-8.077,9.802C218.082,3.251,217.787,3.672,217.692,3.879z"/>
		<path d="M248.506,0.758c-1.108,0.946-2.039,1.828-2.792,2.64c-0.327,0.339-0.754,0.837-1.278,1.492l-0.597-0.328
			c0.126-0.189,0.284-0.457,0.474-0.801c0.676-1.232,0.87-2.274,0.585-3.128c-0.288-0.852-0.956-1.567-2.007-2.143l-0.081-0.044
			c-0.635-0.349-1.138-0.56-1.51-0.633c-0.372-0.075-0.732-0.008-1.082,0.201c-0.351,0.209-0.806,0.607-1.363,1.196l-4.134,4.31
			l0.409,0.224c0.851,0.466,1.794,0.596,2.828,0.385c1.035-0.211,1.944-0.643,2.728-1.298l0.598,0.329
			c-0.777,0.729-1.494,1.456-2.149,2.18l-0.594,0.628c-0.395,0.42-0.782,0.845-1.158,1.274c-0.377,0.429-0.834,0.981-1.367,1.654
			l-0.599-0.328c0.428-0.779,0.604-1.595,0.53-2.45c-0.073-0.854-0.572-1.534-1.496-2.04l-0.163-0.09l-4.22,4.403
			c-0.54,0.6-0.865,0.999-0.975,1.198c-0.21,0.38-0.215,0.701-0.017,0.963s0.633,0.577,1.303,0.944l0.354,0.194
			c1.341,0.735,2.688,0.998,4.042,0.785c1.354-0.212,2.87-0.987,4.55-2.33l0.598,0.328c-0.364,0.319-0.912,0.867-1.645,1.644
			c-0.896,0.9-1.767,1.93-2.615,3.091c-1.202-0.73-3.235-1.881-6.098-3.451c-4.203-2.306-7.371-4.008-9.502-5.108l0.406-0.483
			c0.672,0.321,1.202,0.517,1.587,0.587c0.386,0.07,0.758,0.002,1.117-0.2c0.359-0.204,0.818-0.6,1.378-1.189l8.786-9.182
			c0.482-0.536,0.794-0.93,0.934-1.184c0.218-0.399,0.23-0.734,0.038-1.005c-0.193-0.271-0.625-0.613-1.293-1.028l0.434-0.469
			c2.054,1.198,5.183,2.95,9.387,5.256C245.445-0.816,247.335,0.186,248.506,0.758z"/>
		<path d="M275.667,18.941l-0.45,0.444c-0.785-0.132-1.529-0.156-2.235-0.073c-0.705,0.083-1.694,0.419-2.966,1.005l-15.687,7.117
			c-0.388-0.313-0.692-0.545-0.915-0.695s-0.567-0.36-1.035-0.627l4.6-9.878l-11.348,5.303c-0.387-0.313-0.692-0.544-0.914-0.695
			c-0.224-0.151-0.568-0.359-1.036-0.627l6.765-15.226c0.537-1.233,0.516-2.048-0.066-2.442l0.451-0.443
			c1.11,0.828,2.359,1.711,3.745,2.65c1.728,1.171,3.02,2.01,3.875,2.516L258,7.713c-0.727-0.367-1.314-0.217-1.768,0.45
			c-0.174,0.256-0.363,0.628-0.566,1.114l-3.964,8.773l5.67-2.674l2.003-4.334c0.6-1.142,0.671-1.893,0.216-2.251l0.45-0.445
			c0.975,0.736,2.146,1.568,3.514,2.496c2.07,1.403,3.61,2.41,4.619,3.02l-0.449,0.443c-0.776-0.476-1.372-0.729-1.787-0.761
			c-0.415-0.032-0.797,0.208-1.146,0.722c-0.139,0.205-0.299,0.495-0.479,0.873l-4.335,9.046l9.64-4.439
			c0.885-0.423,1.438-0.796,1.658-1.122c0.232-0.342,0.242-0.734,0.03-1.178c-0.211-0.442-0.679-0.997-1.4-1.661l0.451-0.444
			c1.47,1.072,2.667,1.921,3.59,2.548C274.528,18.283,275.102,18.633,275.667,18.941z"/>
		<path d="M272.546,36.501c1.062-0.089,2.05,0.23,2.965,0.954c0.724,0.574,1.152,1.177,1.286,1.811s-0.057,1.273-0.568,1.922
			c-0.394,0.496-0.912,0.857-1.562,1.089c-0.647,0.23-1.333,0.292-2.054,0.187c-0.723-0.107-1.378-0.395-1.968-0.863
			c-0.726-0.573-1.149-1.173-1.273-1.799c-0.125-0.626,0.056-1.243,0.539-1.853C270.604,37.073,271.482,36.591,272.546,36.501z
			 M285.543,25.033c0.466,0.586,0.728,1.165,0.785,1.739c0.057,0.572-0.095,1.087-0.457,1.544c-0.498,0.629-1.198,0.896-2.1,0.801
			c-0.902-0.094-1.772-0.476-2.61-1.137c-0.725-0.575-1.19-1.199-1.398-1.875c-0.207-0.678-0.086-1.303,0.367-1.874
			c0.815-1.027,2.086-1.222,3.812-0.584c1.726,0.641,3.484,1.668,5.274,3.088c1.791,1.418,3.121,2.831,3.994,4.235
			c0.871,1.403,0.899,2.62,0.085,3.648c-0.634,0.801-1.567,1.186-2.8,1.155c-1.23-0.031-3.096-0.369-5.593-1.015
			c-1.443-0.369-2.59-0.604-3.442-0.704c-0.85-0.1-1.514-0.084-1.992,0.05c-0.478,0.133-0.866,0.39-1.168,0.77
			c-0.394,0.496-0.509,1.024-0.349,1.585c0.158,0.562,0.516,1.061,1.068,1.499c0.399,0.317,0.785,0.514,1.157,0.592
			c-0.524-1.254-0.517-2.224,0.027-2.908c0.438-0.553,1.065-0.808,1.884-0.765c0.818,0.044,1.599,0.361,2.343,0.949
			c0.646,0.514,1.066,1.087,1.263,1.723c0.194,0.635,0.08,1.22-0.342,1.752c-0.771,0.972-2.003,1.156-3.698,0.558
			c-1.695-0.6-3.354-1.54-4.974-2.823c-1.561-1.238-2.638-2.472-3.23-3.701c-0.591-1.229-0.503-2.329,0.267-3.301
			c0.574-0.724,1.392-1.137,2.452-1.244c1.061-0.104,2.729,0.109,5.004,0.642c1.618,0.383,2.896,0.611,3.829,0.686
			c0.935,0.073,1.617,0.033,2.05-0.12c0.431-0.155,0.791-0.412,1.078-0.773c0.361-0.458,0.448-0.979,0.26-1.562
			c-0.188-0.582-0.635-1.154-1.339-1.713C286.517,25.525,286.015,25.22,285.543,25.033z"/>
	</g>
</g>
</svg>
